<svg xmlns="http://www.w3.org/2000/svg" xmlns:xlink="http://www.w3.org/1999/xlink" width="2000" zoomAndPan="magnify" viewBox="0 0 1500 1499.999933" height="2000" preserveAspectRatio="xMidYMid meet" version="1.0"><defs><clipPath id="5da3f53e30"><path d="M 0 0 L 1495.90625 0 L 1495.90625 1500 L 0 1500 Z M 0 0 " clip-rule="nonzero"/></clipPath></defs><g clip-path="url(#5da3f53e30)"><path fill="#ff7be5" d="M 745.90625 0 C 331.65625 0 -4.09375 335.75 -4.09375 750 C -4.09375 1164.125 331.65625 1500 745.90625 1500 C 1160.15625 1500 1495.90625 1164.25 1495.90625 750 C 1495.90625 335.875 1160.15625 0 745.90625 0 Z M 558.40625 1062.5 L 433.40625 1062.5 L 433.40625 437.5 L 558.40625 437.5 Z M 1058.40625 1062.5 L 683.40625 1062.5 L 683.40625 937.5 L 1058.40625 937.5 Z M 1058.40625 812.5 L 683.40625 812.5 L 683.40625 687.5 L 1058.40625 687.5 Z M 1058.40625 562.5 L 683.40625 562.5 L 683.40625 437.5 L 1058.40625 437.5 Z M 1058.40625 562.5 " fill-opacity="1" fill-rule="nonzero"/></g></svg>