<svg xmlns="http://www.w3.org/2000/svg" xmlns:xlink="http://www.w3.org/1999/xlink" width="2000" zoomAndPan="magnify" viewBox="0 0 1500 1499.999933" height="2000" preserveAspectRatio="xMidYMid meet" version="1.0"><path fill="#ffffff" d="M 750 0 C 335.789062 0 0 335.789062 0 750 C 0 1164.210938 335.789062 1500 750 1500 C 1164.210938 1500 1500 1164.210938 1500 750 C 1500 335.789062 1164.210938 0 750 0 Z M 750 1443.191406 C 367.160156 1443.191406 56.808594 1132.835938 56.808594 750 C 56.808594 367.164062 367.160156 56.808594 750 56.808594 C 1132.839844 56.808594 1443.191406 367.160156 1443.191406 750 C 1443.191406 1132.839844 1132.839844 1443.191406 750 1443.191406 Z M 750 1443.191406 " fill-opacity="1" fill-rule="nonzero"/><path fill="#ffffff" d="M 661.976562 1117.628906 C 643.164062 1119.433594 628.140625 1121.503906 613.050781 1122.214844 C 527.472656 1126.261719 464.117188 1092.523438 425.699219 1013.855469 C 413.460938 988.804688 397.796875 965.15625 381.484375 942.460938 C 371.6875 928.828125 357.960938 917.878906 345.28125 906.523438 L 345.128906 906.386719 C 337.289062 899.484375 340.746094 886.582031 351.046875 884.851562 C 363.136719 882.820312 374.40625 885.003906 385.390625 887.800781 C 419.804688 896.558594 441.886719 920.949219 459.484375 950.125 C 499.28125 1016.105469 567.816406 1043.625 641.921875 1023.96875 C 654.507812 1020.628906 660.050781 1015.214844 662.789062 1001.492188 C 665.984375 985.488281 670.324219 969.714844 674.992188 953.632812 C 675.335938 952.453125 675.617188 951.257812 675.839844 950.046875 C 676.0625 948.835938 676.21875 947.621094 676.316406 946.394531 C 676.414062 945.167969 676.453125 943.941406 676.425781 942.710938 C 676.398438 941.480469 676.308594 940.253906 676.15625 939.035156 C 676.007812 937.8125 675.792969 936.605469 675.519531 935.40625 C 675.246094 934.207031 674.914062 933.023438 674.519531 931.859375 C 674.125 930.691406 673.675781 929.550781 673.164062 928.429688 C 672.65625 927.3125 672.089844 926.222656 671.472656 925.160156 C 670.851562 924.097656 670.179688 923.070312 669.453125 922.074219 C 668.730469 921.082031 667.957031 920.125 667.136719 919.210938 C 666.316406 918.292969 665.449219 917.421875 664.539062 916.59375 C 663.632812 915.765625 662.683594 914.988281 661.691406 914.253906 C 660.703125 913.523438 659.679688 912.84375 658.625 912.214844 C 657.566406 911.589844 656.480469 911.015625 655.363281 910.5 C 654.25 909.980469 653.109375 909.519531 651.945312 909.117188 C 650.785156 908.714844 649.605469 908.375 648.40625 908.089844 L 647.992188 907.992188 C 571.097656 889.59375 504.671875 855.339844 461.871094 785.070312 C 438.984375 747.496094 427.664062 706.105469 428.242188 662.980469 C 428.902344 614.054688 433.230469 565.027344 438.851562 516.378906 C 442.8125 482.125 458.675781 451.789062 483.308594 427.15625 C 491.890625 418.570312 492.617188 411.371094 488.472656 400.253906 C 471.515625 354.738281 474.460938 309.125 489.515625 263.511719 C 493.761719 250.640625 499.792969 248.800781 512.101562 252.675781 C 550.207031 264.667969 578.632812 289.457031 603.613281 319.152344 L 603.867188 319.457031 C 605.429688 321.332031 607.121094 323.078125 608.941406 324.703125 C 610.761719 326.324219 612.695312 327.804688 614.734375 329.136719 C 616.777344 330.472656 618.90625 331.648438 621.125 332.667969 C 623.339844 333.683594 625.621094 334.53125 627.964844 335.207031 C 630.308594 335.886719 632.6875 336.386719 635.105469 336.707031 C 637.523438 337.03125 639.953125 337.171875 642.390625 337.132812 C 644.832031 337.09375 647.253906 336.875 649.660156 336.472656 C 652.066406 336.070312 654.429688 335.496094 656.75 334.742188 C 735.816406 308.8125 855.769531 308.464844 930.339844 334.128906 C 932.667969 334.917969 935.046875 335.53125 937.46875 335.964844 C 939.886719 336.398438 942.328125 336.648438 944.789062 336.710938 C 947.246094 336.777344 949.699219 336.660156 952.140625 336.355469 C 954.582031 336.050781 956.984375 335.566406 959.351562 334.902344 C 961.722656 334.234375 964.027344 333.394531 966.269531 332.382812 C 968.511719 331.367188 970.664062 330.191406 972.726562 328.855469 C 974.792969 327.519531 976.746094 326.035156 978.585938 324.402344 C 980.429688 322.769531 982.136719 321.007812 983.710938 319.121094 L 983.953125 318.835938 C 1008.976562 289.148438 1037.527344 264.550781 1075.601562 252.523438 C 1088.378906 248.488281 1093.816406 251.558594 1097.859375 263.980469 C 1112.714844 309.617188 1115.25 354.960938 1099.179688 400.949219 C 1096.917969 407.421875 1097.007812 418.683594 1101.035156 422.773438 C 1135.175781 457.402344 1150.121094 500.390625 1153.914062 546.96875 C 1157.578125 591.964844 1161.542969 637.734375 1157.367188 682.417969 C 1146.5 798.625 1075.839844 866.3125 968.390625 899.957031 C 959.195312 902.835938 949.855469 905.25 940.320312 907.503906 C 939.085938 907.796875 937.867188 908.152344 936.667969 908.570312 C 935.46875 908.992188 934.292969 909.472656 933.144531 910.015625 C 931.996094 910.558594 930.878906 911.15625 929.792969 911.816406 C 928.707031 912.476562 927.660156 913.191406 926.648438 913.960938 C 925.636719 914.730469 924.667969 915.550781 923.742188 916.417969 C 922.820312 917.289062 921.941406 918.207031 921.113281 919.167969 C 920.28125 920.132812 919.503906 921.132812 918.78125 922.179688 C 918.058594 923.222656 917.390625 924.300781 916.777344 925.414062 C 916.164062 926.527344 915.613281 927.667969 915.121094 928.839844 C 914.628906 930.011719 914.199219 931.207031 913.832031 932.421875 C 913.464844 933.636719 913.164062 934.871094 912.925781 936.117188 C 912.6875 937.367188 912.515625 938.625 912.410156 939.890625 C 912.304688 941.15625 912.261719 942.421875 912.289062 943.695312 C 912.316406 944.964844 912.40625 946.230469 912.566406 947.488281 C 912.726562 948.75 912.949219 950 913.238281 951.234375 C 913.527344 952.472656 913.882812 953.691406 914.296875 954.890625 C 928.933594 997.304688 926.699219 1042.617188 926.472656 1087.640625 C 926.417969 1097.988281 926.382812 1108.339844 926.363281 1118.703125 C 926.359375 1120.839844 926.304688 1122.972656 926.195312 1125.109375 C 926.085938 1127.242188 925.921875 1129.371094 925.710938 1131.496094 C 925.496094 1133.621094 925.230469 1135.742188 924.914062 1137.855469 C 924.59375 1139.96875 924.226562 1142.070312 923.804688 1144.164062 C 923.382812 1146.261719 922.914062 1148.34375 922.390625 1150.414062 C 921.867188 1152.484375 921.292969 1154.542969 920.667969 1156.585938 C 920.046875 1158.628906 919.371094 1160.65625 918.648438 1162.667969 C 917.925781 1164.675781 917.152344 1166.667969 916.332031 1168.640625 C 915.511719 1170.613281 914.644531 1172.566406 913.726562 1174.496094 C 912.8125 1176.425781 911.847656 1178.332031 910.835938 1180.214844 C 909.828125 1182.097656 908.773438 1183.953125 907.671875 1185.785156 C 906.570312 1187.613281 905.425781 1189.417969 904.234375 1191.191406 C 903.046875 1192.96875 901.816406 1194.710938 900.539062 1196.425781 C 899.265625 1198.140625 897.949219 1199.820312 896.589844 1201.472656 C 895.234375 1203.121094 893.835938 1204.738281 892.398438 1206.320312 C 890.964844 1207.898438 889.488281 1209.445312 887.976562 1210.953125 C 886.464844 1212.460938 884.917969 1213.933594 883.332031 1215.367188 C 881.746094 1216.800781 880.128906 1218.195312 878.476562 1219.546875 C 876.824219 1220.902344 875.136719 1222.214844 873.421875 1223.484375 C 871.703125 1224.753906 869.957031 1225.984375 868.179688 1227.167969 C 866.402344 1228.355469 864.597656 1229.496094 862.761719 1230.59375 C 860.929688 1231.691406 859.070312 1232.742188 857.183594 1233.746094 C 855.300781 1234.753906 853.390625 1235.710938 851.460938 1236.625 C 849.527344 1237.535156 847.574219 1238.398438 845.601562 1239.214844 C 843.628906 1240.03125 841.632812 1240.800781 839.621094 1241.519531 C 837.609375 1242.238281 835.582031 1242.90625 833.535156 1243.527344 C 831.492188 1244.144531 829.433594 1244.714844 827.359375 1245.230469 C 825.289062 1245.75 823.203125 1246.21875 821.109375 1246.632812 C 819.011719 1247.050781 816.910156 1247.414062 814.796875 1247.726562 C 812.683594 1248.039062 810.5625 1248.300781 808.4375 1248.511719 C 806.308594 1248.71875 804.179688 1248.875 802.046875 1248.980469 C 799.914062 1249.085938 797.777344 1249.136719 795.640625 1249.136719 L 792.695312 1249.136719 C 790.558594 1249.136719 788.417969 1249.085938 786.28125 1248.980469 C 784.144531 1248.875 782.011719 1248.71875 779.882812 1248.507812 C 777.753906 1248.296875 775.632812 1248.035156 773.515625 1247.722656 C 771.398438 1247.40625 769.292969 1247.042969 767.191406 1246.625 C 765.09375 1246.207031 763.007812 1245.738281 760.933594 1245.21875 C 758.855469 1244.699219 756.796875 1244.128906 754.75 1243.507812 C 752.703125 1242.886719 750.671875 1242.214844 748.65625 1241.496094 C 746.640625 1240.773438 744.644531 1240.003906 742.667969 1239.1875 C 740.691406 1238.367188 738.738281 1237.5 736.804688 1236.585938 C 734.871094 1235.671875 732.960938 1234.710938 731.074219 1233.699219 C 729.1875 1232.691406 727.324219 1231.636719 725.488281 1230.539062 C 723.65625 1229.4375 721.847656 1228.292969 720.070312 1227.105469 C 718.289062 1225.917969 716.542969 1224.683594 714.824219 1223.410156 C 713.105469 1222.136719 711.417969 1220.820312 709.765625 1219.464844 C 708.109375 1218.105469 706.492188 1216.710938 704.90625 1215.273438 C 703.320312 1213.835938 701.773438 1212.359375 700.257812 1210.847656 C 698.746094 1209.335938 697.273438 1207.785156 695.835938 1206.199219 C 694.398438 1204.617188 693 1202.996094 691.644531 1201.34375 C 690.285156 1199.6875 688.972656 1198.003906 687.695312 1196.285156 C 686.421875 1194.566406 685.191406 1192.816406 684.003906 1191.039062 C 682.8125 1189.257812 681.667969 1187.453125 680.570312 1185.617188 C 679.46875 1183.78125 678.414062 1181.921875 677.40625 1180.035156 C 676.398438 1178.148438 675.4375 1176.238281 674.523438 1174.304688 C 673.605469 1172.371094 672.742188 1170.414062 671.921875 1168.4375 C 671.101562 1166.460938 670.332031 1164.464844 669.613281 1162.449219 C 668.890625 1160.4375 668.222656 1158.40625 667.601562 1156.359375 C 666.980469 1154.3125 666.410156 1152.25 665.886719 1150.175781 C 665.367188 1148.097656 664.898438 1146.011719 664.484375 1143.914062 C 664.066406 1141.816406 663.699219 1139.707031 663.386719 1137.59375 C 663.070312 1135.476562 662.808594 1133.351562 662.601562 1131.222656 C 662.390625 1129.09375 662.234375 1126.960938 662.128906 1124.824219 C 662.023438 1122.6875 661.972656 1120.550781 661.972656 1118.410156 Z M 661.976562 1117.628906 " fill-opacity="1" fill-rule="nonzero"/></svg>