<svg xmlns="http://www.w3.org/2000/svg" xmlns:xlink="http://www.w3.org/1999/xlink" width="2000" zoomAndPan="magnify" viewBox="0 0 1500 1499.999933" height="2000" preserveAspectRatio="xMidYMid meet" version="1.0"><defs><clipPath id="eae85b6c03"><path d="M 221 297 L 1279 297 L 1279 1496.289062 L 221 1496.289062 Z M 221 297 " clip-rule="nonzero"/></clipPath><clipPath id="586b820a98"><path d="M 319 3.789062 L 516 3.789062 L 516 206 L 319 206 Z M 319 3.789062 " clip-rule="nonzero"/></clipPath><clipPath id="279b327eeb"><path d="M 545 3.789062 L 731 3.789062 L 731 206 L 545 206 Z M 545 3.789062 " clip-rule="nonzero"/></clipPath><clipPath id="05f4fac01d"><path d="M 760 3.789062 L 987 3.789062 L 987 206 L 760 206 Z M 760 3.789062 " clip-rule="nonzero"/></clipPath><clipPath id="6e37101000"><path d="M 1020 3.789062 L 1183 3.789062 L 1183 206 L 1020 206 Z M 1020 3.789062 " clip-rule="nonzero"/></clipPath></defs><g clip-path="url(#eae85b6c03)"><path fill="#e44d26" d="M 1278.832031 297.074219 L 1182.515625 1376.125 L 749.542969 1496.148438 L 317.773438 1376.292969 L 221.5625 297.074219 L 1278.8125 297.058594 L 1278.851562 297.058594 Z M 1278.832031 297.074219 " fill-opacity="1" fill-rule="nonzero"/></g><path fill="#f16529" d="M 750.207031 1404.40625 L 1100.082031 1307.425781 L 1182.390625 385.328125 L 750.207031 385.316406 Z M 750.207031 1404.40625 " fill-opacity="1" fill-rule="nonzero"/><path fill="#ebebeb" d="M 562.960938 650.035156 L 750.207031 650.035156 L 750.207031 517.660156 L 418.304688 517.660156 L 421.472656 553.179688 L 454.007812 917.929688 L 750.207031 917.929688 L 750.207031 785.597656 L 575.058594 785.597656 Z M 562.960938 650.035156 " fill-opacity="1" fill-rule="nonzero"/><path fill="#ebebeb" d="M 592.792969 984.117188 L 459.921875 984.117188 L 478.464844 1191.960938 L 749.585938 1267.226562 L 750.207031 1267.058594 L 750.207031 1129.339844 L 749.625 1129.503906 L 602.214844 1089.675781 Z M 592.792969 984.117188 " fill-opacity="1" fill-rule="nonzero"/><g clip-path="url(#586b820a98)"><path fill="#ffffff" d="M 319.933594 3.789062 L 387.199219 3.789062 L 387.199219 70.246094 L 448.726562 70.246094 L 448.726562 3.789062 L 515.996094 3.789062 L 515.996094 205.035156 L 448.730469 205.035156 L 448.730469 137.648438 L 387.199219 137.648438 L 387.199219 205.035156 L 319.933594 205.035156 Z M 319.933594 3.789062 " fill-opacity="1" fill-rule="nonzero"/></g><g clip-path="url(#279b327eeb)"><path fill="#ffffff" d="M 604.449219 70.527344 L 545.234375 70.527344 L 545.234375 3.789062 L 730.976562 3.789062 L 730.976562 70.527344 L 671.710938 70.527344 L 671.710938 205.035156 L 604.453125 205.035156 L 604.453125 70.527344 Z M 604.449219 70.527344 " fill-opacity="1" fill-rule="nonzero"/></g><g clip-path="url(#05f4fac01d)"><path fill="#ffffff" d="M 760.445312 3.789062 L 830.566406 3.789062 L 873.710938 74.5 L 916.8125 3.789062 L 986.980469 3.789062 L 986.980469 205.035156 L 920.003906 205.035156 L 920.003906 105.285156 L 873.710938 176.839844 L 872.550781 176.839844 L 826.257812 105.285156 L 826.257812 205.035156 L 760.445312 205.035156 Z M 760.445312 3.789062 " fill-opacity="1" fill-rule="nonzero"/></g><g clip-path="url(#6e37101000)"><path fill="#ffffff" d="M 1020.464844 3.789062 L 1087.730469 3.789062 L 1087.730469 138.515625 L 1182.347656 138.515625 L 1182.347656 205.035156 L 1020.464844 205.035156 Z M 1020.464844 3.789062 " fill-opacity="1" fill-rule="nonzero"/></g><path fill="#ffffff" d="M 749.75 917.929688 L 912.753906 917.929688 L 897.375 1089.59375 L 749.75 1129.464844 L 749.75 1267.144531 L 1021.089844 1191.960938 L 1023.078125 1169.582031 L 1054.203125 821.117188 L 1057.433594 785.597656 L 749.75 785.597656 Z M 749.75 917.929688 " fill-opacity="1" fill-rule="nonzero"/><path fill="#ffffff" d="M 749.75 649.703125 L 749.75 650.035156 L 1069.453125 650.035156 L 1072.105469 620.277344 L 1078.15625 553.179688 L 1081.308594 517.660156 L 749.75 517.660156 Z M 749.75 649.703125 " fill-opacity="1" fill-rule="nonzero"/></svg>