<svg xmlns="http://www.w3.org/2000/svg" xmlns:xlink="http://www.w3.org/1999/xlink" width="2000" zoomAndPan="magnify" viewBox="0 0 1500 1499.999933" height="2000" preserveAspectRatio="xMidYMid meet" version="1.0"><path fill="#eee400" d="M 1149.601562 1382.398438 C 1018.738281 1382.398438 934.109375 1320 892.859375 1238.398438 L 1007.609375 1171.917969 C 1037.851562 1221.296875 1077.058594 1257.507812 1146.570312 1257.507812 C 1204.921875 1257.507812 1242.179688 1228.320312 1242.179688 1188.027344 C 1242.179688 1127.457031 1161.328125 1103.726562 1104.269531 1079.308594 C 1002.570312 1036.015625 935.070312 981.625 935.070312 866.816406 C 935.070312 761.125 1015.621094 680.605469 1141.558594 680.605469 C 1231.109375 680.605469 1295.609375 711.808594 1341.871094 793.316406 L 1232.128906 863.816406 C 1207.980469 820.527344 1181.820312 803.425781 1141.53125 803.425781 C 1100.21875 803.425781 1074.03125 829.617188 1074.03125 863.816406 C 1074.03125 906.117188 1100.191406 923.214844 1160.640625 949.40625 C 1287.300781 1003.675781 1383.148438 1046.367188 1383.148438 1186.015625 C 1383.210938 1312.949219 1283.550781 1382.398438 1149.601562 1382.398438 Z M 825 1169.941406 C 825 1315.949219 735.058594 1393.140625 610.199219 1393.140625 C 497.398438 1393.140625 429.839844 1350 396.601562 1275 L 394.648438 1275 L 509.308594 1194.839844 C 531.449219 1234.046875 551.398438 1261.890625 599.699219 1261.890625 C 646.050781 1261.890625 675 1238.429688 675 1167.988281 L 675 675 L 825 675 Z M 0 1500 L 1500 1500 L 1500 0 L 0 0 Z M 0 1500 " fill-opacity="1" fill-rule="evenodd"/></svg>