<svg xmlns="http://www.w3.org/2000/svg" xmlns:xlink="http://www.w3.org/1999/xlink" width="2000" zoomAndPan="magnify" viewBox="0 0 1500 1499.999933" height="2000" preserveAspectRatio="xMidYMid meet" version="1.0"><path fill="#53c1de" d="M 883.945312 756.519531 C 883.945312 684.78125 823.980469 626.617188 750 626.617188 C 676.03125 626.617188 616.054688 684.78125 616.054688 756.519531 C 616.054688 828.269531 676.03125 886.429688 750 886.429688 C 823.980469 886.429688 883.945312 828.269531 883.945312 756.519531 Z M 883.945312 756.519531 " fill-opacity="1" fill-rule="nonzero"/><path fill="#53c1de" d="M 1185.019531 515.347656 C 1213.304688 403.871094 1248.859375 197.152344 1123.519531 127.066406 C 998.765625 57.285156 836.417969 190.996094 750.695312 271.253906 C 665.21875 191.796875 498.316406 58.65625 373.082031 128.964844 C 248.375 198.980469 286.832031 402.273438 315.746094 514.445312 C 199.414062 546.488281 0 615.507812 0 756.519531 C 0 897.132812 199.207031 972.222656 314.847656 1004.238281 C 285.828125 1117.03125 249.296875 1317.421875 374.164062 1387.28125 C 499.863281 1457.574219 666.25 1327.605469 752.769531 1246.46875 C 839.042969 1327.199219 999.828125 1458.019531 1124.609375 1387.964844 C 1249.78125 1317.691406 1217.179688 1113.742188 1188.265625 1000.917969 C 1300.363281 968.832031 1500 895.378906 1500 756.519531 C 1500 616.863281 1299.515625 547.285156 1185.019531 515.347656 Z M 1170.808594 941.125 C 1151.824219 882.839844 1126.199219 820.859375 1094.855469 756.832031 C 1124.773438 694.316406 1149.40625 633.132812 1167.859375 575.222656 C 1251.792969 598.824219 1435.925781 652.761719 1435.925781 756.519531 C 1435.925781 861.253906 1259.230469 915.703125 1170.808594 941.125 Z M 1092.5 1334.179688 C 999.398438 1386.445312 861.105469 1261.339844 797.390625 1201.890625 C 839.660156 1157.054688 881.898438 1104.929688 923.125 1047.050781 C 995.644531 1040.8125 1064.148438 1030.609375 1126.28125 1016.679688 C 1146.628906 1096.488281 1186.011719 1281.683594 1092.5 1334.179688 Z M 406.179688 1333.4375 C 313.070312 1281.367188 355.628906 1102.550781 376.976562 1019.460938 C 438.417969 1032.644531 506.429688 1042.128906 579.121094 1047.84375 C 620.613281 1104.480469 664.078125 1156.539062 707.878906 1202.128906 C 653.765625 1252.898438 499.726562 1385.746094 406.179688 1333.4375 Z M 64.074219 756.519531 C 64.074219 651.398438 247.101562 597.847656 332.953125 574.308594 C 351.726562 633.519531 376.347656 695.429688 406.0625 758.035156 C 375.960938 821.574219 350.988281 884.464844 332.042969 944.375 C 250.183594 921.652344 64.074219 861.710938 64.074219 756.519531 Z M 405.183594 182.75 C 498.675781 130.265625 643.734375 258.085938 705.796875 315.613281 C 662.21875 360.996094 619.15625 412.664062 578.015625 468.972656 C 507.46875 475.316406 439.9375 485.5 377.855469 499.140625 C 354.5625 408.667969 311.796875 235.175781 405.183594 182.75 Z M 968.964844 536.523438 C 1016.824219 542.378906 1062.679688 550.171875 1105.734375 559.703125 C 1092.808594 599.882812 1076.699219 641.902344 1057.726562 684.972656 C 1030.21875 634.359375 1000.695312 584.761719 968.964844 536.523438 Z M 750.714844 360.023438 C 780.269531 391.078125 809.871094 425.753906 838.988281 463.371094 C 779.925781 460.664062 720.765625 460.652344 661.699219 463.332031 C 690.84375 426.0625 720.699219 391.4375 750.714844 360.023438 Z M 442.824219 684.925781 C 424.164062 642.003906 408.199219 599.804688 395.160156 559.046875 C 437.960938 549.761719 483.601562 542.167969 531.148438 536.40625 C 499.328125 584.539062 469.855469 634.117188 442.824219 684.925781 Z M 532.515625 981.070312 C 483.394531 975.753906 437.0625 968.546875 394.277344 959.515625 C 407.523438 918.042969 423.839844 874.933594 442.898438 831.085938 C 470.300781 882.425781 500.226562 932.484375 532.515625 981.070312 Z M 752.488281 1157.410156 C 722.121094 1125.625 691.824219 1090.472656 662.238281 1052.660156 C 721.640625 1054.921875 781.15625 1054.925781 840.550781 1052.355469 C 811.339844 1090.855469 781.84375 1126.058594 752.488281 1157.410156 Z M 1058.335938 828.855469 C 1078.386719 873.175781 1095.285156 916.054688 1108.710938 956.824219 C 1065.214844 966.453125 1018.261719 974.203125 968.785156 979.960938 C 1000.75 930.808594 1030.746094 880.441406 1058.335938 828.855469 Z M 887.363281 987.492188 C 796.503906 993.789062 705.078125 993.71875 614.191406 988.007812 C 562.546875 914.84375 516.570312 837.898438 476.886719 758.015625 C 516.378906 678.300781 562.019531 601.503906 613.421875 528.457031 C 704.375 521.789062 795.890625 521.769531 886.84375 528.496094 C 937.804688 601.539062 983.375 678.136719 1023.785156 757.132812 C 983.855469 836.808594 937.976562 913.757812 887.363281 987.492188 Z M 1091.515625 180.902344 C 1185.03125 233.214844 1143.40625 419 1122.976562 499.789062 C 1060.746094 485.859375 993.164062 475.496094 922.414062 469.054688 C 881.195312 412.136719 838.488281 360.378906 795.621094 315.582031 C 858.476562 256.8125 998.90625 129.101562 1091.515625 180.902344 Z M 1091.515625 180.902344 " fill-opacity="1" fill-rule="evenodd"/></svg>